<?xml version="1.0" encoding="UTF-8" standalone="no"?>
<svg width="309px" height="93px" viewBox="0 0 309 93" version="1.1" xmlns="http://www.w3.org/2000/svg" xmlns:xlink="http://www.w3.org/1999/xlink">
    <!-- Generator: Sketch 3.8.2 (29753) - http://www.bohemiancoding.com/sketch -->
    <title>dragatti copy 4</title>
    <desc>Created with Sketch.</desc>
    <defs></defs>
    <g id="Page-1" stroke="none" stroke-width="1" fill="none" fill-rule="evenodd">
        <g id="dragatti-copy-4" fill="#BDBDBD">
            <g id="Group">
                <path d="M142.024,63.969 C138.694,62.292 136.081,62.279 133.142,64.631 C129.477,67.564 125.093,69.302 120.18,69.146 C116.984,69.045 114.456,67.835 113.19,64.82 C112.398,62.934 111.629,63.481 110.44,64.342 C105.378,68.007 99.97,70.487 93.451,69.286 C88.724,68.415 85.92,65.715 84.906,61.031 C83.875,56.269 84.543,51.573 85.38,46.892 C86.529,40.468 88.228,34.218 91.587,28.53 C95.998,21.059 102.928,18.892 111.027,19.475 C115.424,19.792 119.76,20.646 124.066,21.674 C126.465,22.247 127.042,23.284 126.554,25.694 C124.42,36.219 122.444,46.777 120.473,57.335 C119.786,61.015 121.433,62.555 125.11,61.72 C127.655,61.142 129.912,59.862 132.091,58.449 C133.411,57.593 133.495,56.334 133.407,54.932 C132.922,47.211 134.539,39.847 137.427,32.747 C141.482,22.782 149.986,18.031 160.614,19.606 C164.734,20.217 168.844,20.833 172.87,21.952 C174.655,22.448 175.191,23.278 174.794,25.203 C173.05,33.674 171.477,42.181 169.768,51.063 C173.62,50.053 177.2,49.133 180.768,48.166 C181.991,47.834 181.957,46.656 182.162,45.718 C183.198,40.99 184.373,36.304 186.45,31.907 C190.92,22.446 197.203,18.697 207.598,19.467 C212.164,19.805 216.673,20.62 221.118,21.802 C223.024,22.309 223.644,23.078 223.23,25.14 C221.195,35.261 219.296,45.41 217.409,55.56 C217.053,57.478 216.175,59.749 217.922,61.23 C219.702,62.738 221.886,61.753 223.85,61.038 C227.554,59.69 230.186,57.735 230.833,53.258 C231.974,45.356 233.736,37.542 235.289,29.702 C235.675,27.754 235.864,26.207 233.03,26.58 C231.176,26.824 230.903,25.806 231.089,24.103 C231.374,21.486 232.137,19.784 235.216,20.325 C236.653,20.577 237.292,19.728 237.594,18.393 C238.164,15.876 238.926,13.4 239.439,10.873 C239.847,8.862 240.812,8.042 242.947,7.811 C248.801,7.178 247.72,7.616 246.872,12.329 C246.489,14.459 246.048,16.579 245.612,18.699 C245.369,19.884 245.784,20.37 247.027,20.359 C251.443,20.317 255.86,20.316 260.276,20.355 C261.568,20.366 262.263,19.869 262.568,18.595 C263.208,15.923 264.031,13.292 264.601,10.607 C264.99,8.772 265.855,7.967 267.79,7.854 C272.984,7.55 272.977,7.472 271.879,12.7 C271.486,14.574 271.105,16.451 270.728,18.328 C270.453,19.696 270.958,20.369 272.419,20.351 C275.252,20.316 278.087,20.405 280.918,20.333 C282.724,20.288 283.031,20.968 282.52,22.6 C281.27,26.593 281.323,26.61 277.213,26.613 C276.046,26.614 274.88,26.61 273.713,26.614 C268.386,26.628 269.211,26.184 268.218,31.14 C266.549,39.467 265.003,47.818 263.415,56.161 C262.351,61.751 263.894,63.293 269.464,62.153 C271.011,61.836 272.536,61.393 274.049,60.935 C279.745,59.211 283.451,56.331 284.186,49.534 C285.158,40.545 287.556,31.715 289.23,22.795 C289.574,20.96 290.323,20.279 292.192,20.318 C298.842,20.458 298.03,19.607 296.853,25.788 C294.906,36.012 292.864,46.217 290.913,56.44 C289.991,61.271 291.899,62.876 296.568,61.317 C299.289,60.408 301.697,58.927 303.962,57.209 C305.036,56.395 305.976,56.313 306.627,57.584 C307.263,58.825 309.608,59.911 307.741,61.539 C302.967,65.703 297.722,69.028 291.056,69.138 C287.814,69.191 285.109,68.156 283.565,65.15 C282.822,63.703 282.035,64.023 280.97,64.608 C276.706,66.949 272.264,68.876 267.382,69.384 C263.124,69.827 258.786,70.195 255.854,65.973 C254.986,64.723 254.063,65.605 253.231,66.01 C248.677,68.231 243.926,69.67 238.816,69.587 C235.547,69.534 232.463,68.943 230.714,65.684 C230.001,64.355 229.22,65.138 228.462,65.582 C224.743,67.758 220.884,69.434 216.432,69.125 C213.474,68.92 211.026,67.809 209.891,64.924 C209.13,62.989 208.361,63.305 207.021,64.333 C202.905,67.489 198.369,69.673 193.031,69.584 C185.716,69.462 182.222,66.293 181.287,59.03 C180.699,54.465 180.757,54.771 176.267,55.619 C170.56,56.696 167.422,59.172 166.842,65.523 C166.246,72.051 163.942,78.358 160.027,83.851 C155.216,90.602 148.479,92.962 140.547,91.749 C132.716,90.551 129.156,84.574 131.241,76.891 C132.485,72.305 135.596,69.111 139.112,66.213 C140.002,65.48 140.938,64.803 142.024,63.969 L142.024,63.969 Z M206.008,26.594 C201.162,26.566 197.737,27.987 195.522,31.654 C190.738,39.574 189.235,48.403 189.281,57.492 C189.298,60.789 191.348,62.282 194.713,62.399 C199.956,62.582 204.176,60.249 208.033,57.014 C208.774,56.392 209.097,55.533 209.276,54.624 C210.917,46.304 212.529,37.977 214.201,29.663 C214.48,28.276 214.002,27.609 212.682,27.393 C210.469,27.032 208.27,26.553 206.008,26.594 L206.008,26.594 Z M92.61,53.816 C92.548,61.275 94.977,63.334 101.149,62.248 C104.586,61.643 107.566,60.057 110.319,57.926 C111.727,56.836 112.517,55.565 112.844,53.823 C114.134,46.952 115.524,40.1 116.85,33.235 C117.953,27.521 117.936,27.517 112.095,26.726 C104.522,25.699 99.833,28.324 96.822,35.407 C94.154,41.686 93.099,48.329 92.61,53.816 L92.61,53.816 Z M158.01,26.611 C152.653,26.281 148.527,28.32 146.024,33.096 C142.829,39.19 141.434,45.758 141.671,52.614 C141.84,57.52 144.726,59.643 149.523,58.665 C153.061,57.944 156.29,56.369 159.585,54.974 C160.547,54.567 161.016,53.847 161.201,52.914 C162.74,45.161 164.259,37.404 165.785,29.649 C166.014,28.482 165.651,27.758 164.401,27.459 C162.287,26.954 160.181,26.483 158.01,26.611 L158.01,26.611 Z M252.687,26.628 L252.687,26.616 C250.604,26.616 248.518,26.689 246.439,26.593 C244.705,26.513 243.894,27.179 243.587,28.925 C242.677,34.089 241.59,39.222 240.639,44.379 C239.764,49.124 238.461,53.801 238.12,58.629 C237.911,61.594 238.772,62.413 241.7,62.389 C246.068,62.354 249.989,60.762 253.784,58.773 C254.518,58.388 254.838,57.778 254.99,56.994 C256.842,47.432 258.695,37.87 260.585,28.316 C260.834,27.059 260.359,26.619 259.186,26.624 C257.019,26.635 254.853,26.628 252.687,26.628 L252.687,26.628 Z M144.494,84.973 C148.822,85.079 151.664,82.677 153.844,79.298 C156.932,74.51 158.043,69.014 159.268,63.572 C159.627,61.98 158.902,61.867 157.636,62.419 C152.341,64.729 147.279,67.44 143.064,71.452 C141.196,73.23 139.618,75.285 138.98,77.911 C137.932,82.232 140.027,84.944 144.494,84.973 L144.494,84.973 Z" id="Shape"></path>
                <path d="M14.828,69.09 C10.823,69.264 7.259,68.991 3.698,68.596 C0.817,68.276 0.53,67.947 1.063,65.184 C4.356,48.111 7.658,31.04 10.951,13.967 C11.911,8.989 11.904,8.988 6.92,9.544 C3.404,9.937 2.992,9.511 2.872,5.887 C2.822,4.363 3.309,3.619 4.876,3.363 C13.422,1.963 21.98,0.761 30.673,0.876 C32.852,0.905 34.997,1.175 37.11,1.618 C45.062,3.284 49.321,8.508 49.517,17.696 C49.799,30.94 46.998,43.678 41.826,55.828 C37.861,65.143 29.98,68.616 20.402,69.075 C18.409,69.172 16.407,69.09 14.828,69.09 L14.828,69.09 Z M16.466,61.865 C17.299,61.865 18.132,61.885 18.964,61.862 C28.113,61.609 32.69,58.395 35.96,49.869 C37.455,45.972 38.458,41.925 39.236,37.837 C40.618,30.57 42.268,23.31 40.902,15.828 C40.191,11.937 37.957,9.512 34.119,8.771 C30.343,8.043 26.54,7.974 22.69,8.389 C20.722,8.601 20.034,9.468 19.691,11.265 C16.866,26.057 13.96,40.834 11.108,55.621 C9.901,61.878 9.934,61.884 16.466,61.865 L16.466,61.865 Z" id="Shape"></path>
                <path d="M69.677,25.149 C73.261,22.49 76.652,20.282 80.799,19.663 C82.792,19.366 84.769,19.332 86.757,19.66 C88.027,19.869 88.478,20.53 88.023,21.761 C87.591,22.931 87.055,24.077 86.758,25.281 C86.292,27.172 85.182,27.826 83.303,27.601 C78.983,27.083 75.072,28.222 71.481,30.633 C69.388,32.038 68.079,33.795 67.609,36.407 C65.842,46.225 63.851,56.002 62.029,65.81 C61.65,67.85 60.866,68.773 58.608,68.703 C52.537,68.514 53.193,69.162 54.279,63.525 C56.813,50.382 59.33,37.235 61.897,24.099 C62.14,22.853 61.873,21.092 63.31,20.601 C65.106,19.988 67.096,20.257 68.993,20.49 C69.757,20.584 69.676,21.307 69.676,21.89 C69.677,22.85 69.677,23.811 69.677,25.149 L69.677,25.149 Z" id="Shape"></path>
                <path d="M297.417,1.83 C302.721,1.865 302.339,1.398 301.27,6.713 C300.165,12.205 301.054,11.539 295.362,11.58 C290.767,11.613 290.767,11.585 291.649,7.129 C291.681,6.966 291.73,6.807 291.758,6.644 C292.715,0.965 292.311,1.94 297.417,1.83 L297.417,1.83 Z" id="Shape"></path>
            </g>
        </g>
    </g>
</svg>