<?xml version="1.0" encoding="UTF-8" standalone="no"?>
<svg width="402px" height="138px" viewBox="0 0 402 138" version="1.1" xmlns="http://www.w3.org/2000/svg" xmlns:xlink="http://www.w3.org/1999/xlink">
    <!-- Generator: Sketch 3.8.3 (29802) - http://www.bohemiancoding.com/sketch -->
    <title>Combined Shape</title>
    <desc>Created with Sketch.</desc>
    <defs></defs>
    <g id="Page-1" stroke="none" stroke-width="1" fill="none" fill-rule="evenodd">
        <g id="dragatti" transform="translate(2.000000, 73.000000)">
            <g id="Page-1">
                <g id="dragatti">
                    <g id="Group"></g>
                </g>
            </g>
        </g>
        <path d="M0,69 C0,30.8923523 30.897532,0 68.9919697,0 L333.00803,0 C371.111243,0 402,30.8839734 402,69 C402,107.107648 371.102468,138 333.00803,138 L68.9919697,138 C30.888757,138 0,107.116027 0,69 Z M189.024,89.969 C185.694,88.292 183.081,88.279 180.142,90.631 C176.477,93.564 172.093,95.302 167.18,95.146 C163.984,95.045 161.456,93.835 160.19,90.82 C159.398,88.934 158.629,89.481 157.44,90.342 C152.378,94.007 146.97,96.487 140.451,95.286 C135.724,94.415 132.92,91.715 131.906,87.031 C130.875,82.269 131.543,77.573 132.38,72.892 C133.529,66.468 135.228,60.218 138.587,54.53 C142.998,47.059 149.928,44.892 158.027,45.475 C162.424,45.792 166.76,46.646 171.066,47.674 C173.465,48.247 174.042,49.284 173.554,51.694 C171.42,62.219 169.444,72.777 167.473,83.335 C166.786,87.015 168.433,88.555 172.11,87.72 C174.655,87.142 176.912,85.862 179.091,84.449 C180.411,83.593 180.495,82.334 180.407,80.932 C179.922,73.211 181.539,65.847 184.427,58.747 C188.482,48.782 196.986,44.031 207.614,45.606 C211.734,46.217 215.844,46.833 219.87,47.952 C221.655,48.448 222.191,49.278 221.794,51.203 C220.05,59.674 218.477,68.181 216.768,77.063 C220.62,76.053 224.2,75.133 227.768,74.166 C228.991,73.834 228.957,72.656 229.162,71.718 C230.198,66.99 231.373,62.304 233.45,57.907 C237.92,48.446 244.203,44.697 254.598,45.467 C259.164,45.805 263.673,46.62 268.118,47.802 C270.024,48.309 270.644,49.078 270.23,51.14 C268.195,61.261 266.296,71.41 264.409,81.56 C264.053,83.478 263.175,85.749 264.922,87.23 C266.702,88.738 268.886,87.753 270.85,87.038 C274.554,85.69 277.186,83.735 277.833,79.258 C278.974,71.356 280.736,63.542 282.289,55.702 C282.675,53.754 282.864,52.207 280.03,52.58 C278.176,52.824 277.903,51.806 278.089,50.103 C278.374,47.486 279.137,45.784 282.216,46.325 C283.653,46.577 284.292,45.728 284.594,44.393 C285.164,41.876 285.926,39.4 286.439,36.873 C286.847,34.862 287.812,34.042 289.947,33.811 C295.801,33.178 294.72,33.616 293.872,38.329 C293.489,40.459 293.048,42.579 292.612,44.699 C292.369,45.884 292.784,46.37 294.027,46.359 C298.443,46.317 302.86,46.316 307.276,46.355 C308.568,46.366 309.263,45.869 309.568,44.595 C310.208,41.923 311.031,39.292 311.601,36.607 C311.99,34.772 312.855,33.967 314.79,33.854 C319.984,33.55 319.977,33.472 318.879,38.7 C318.486,40.574 318.105,42.451 317.728,44.328 C317.453,45.696 317.958,46.369 319.419,46.351 C322.252,46.316 325.087,46.405 327.918,46.333 C329.724,46.288 330.031,46.968 329.52,48.6 C328.27,52.593 328.323,52.61 324.213,52.613 C323.046,52.614 321.88,52.61 320.713,52.614 C315.386,52.628 316.211,52.184 315.218,57.14 C313.549,65.467 312.003,73.818 310.415,82.161 C309.351,87.751 310.894,89.293 316.464,88.153 C318.011,87.836 319.536,87.393 321.049,86.935 C326.745,85.211 330.451,82.331 331.186,75.534 C332.158,66.545 334.556,57.715 336.23,48.795 C336.574,46.96 337.323,46.279 339.192,46.318 C345.842,46.458 345.03,45.607 343.853,51.788 C341.906,62.012 339.864,72.217 337.913,82.44 C336.991,87.271 338.899,88.876 343.568,87.317 C346.289,86.408 348.697,84.927 350.962,83.209 C352.036,82.395 352.976,82.313 353.627,83.584 C354.263,84.825 356.608,85.911 354.741,87.539 C349.967,91.703 344.722,95.028 338.056,95.138 C334.814,95.191 332.109,94.156 330.565,91.15 C329.822,89.703 329.035,90.023 327.97,90.608 C323.706,92.949 319.264,94.876 314.382,95.384 C310.124,95.827 305.786,96.195 302.854,91.973 C301.986,90.723 301.063,91.605 300.231,92.01 C295.677,94.231 290.926,95.67 285.816,95.587 C282.547,95.534 279.463,94.943 277.714,91.684 C277.001,90.355 276.22,91.138 275.462,91.582 C271.743,93.758 267.884,95.434 263.432,95.125 C260.474,94.92 258.026,93.809 256.891,90.924 C256.13,88.989 255.361,89.305 254.021,90.333 C249.905,93.489 245.369,95.673 240.031,95.584 C232.716,95.462 229.222,92.293 228.287,85.03 C227.699,80.465 227.757,80.771 223.267,81.619 C217.56,82.696 214.422,85.172 213.842,91.523 C213.246,98.051 210.942,104.358 207.027,109.851 C202.216,116.602 195.479,118.962 187.547,117.749 C179.716,116.551 176.156,110.574 178.241,102.891 C179.485,98.305 182.596,95.111 186.112,92.213 C187.002,91.48 187.938,90.803 189.024,89.969 Z M253.008,52.594 C248.162,52.566 244.737,53.987 242.522,57.654 C237.738,65.574 236.235,74.403 236.281,83.492 C236.298,86.789 238.348,88.282 241.713,88.399 C246.956,88.582 251.176,86.249 255.033,83.014 C255.774,82.392 256.097,81.533 256.276,80.624 C257.917,72.304 259.529,63.977 261.201,55.663 C261.48,54.276 261.002,53.609 259.682,53.393 C257.469,53.032 255.27,52.553 253.008,52.594 Z M139.61,79.816 C139.548,87.275 141.977,89.334 148.149,88.248 C151.586,87.643 154.566,86.057 157.319,83.926 C158.727,82.836 159.517,81.565 159.844,79.823 C161.134,72.952 162.524,66.1 163.85,59.235 C164.953,53.521 164.936,53.517 159.095,52.726 C151.522,51.699 146.833,54.324 143.822,61.407 C141.154,67.686 140.099,74.329 139.61,79.816 Z M205.01,52.611 C199.653,52.281 195.527,54.32 193.024,59.096 C189.829,65.19 188.434,71.758 188.671,78.614 C188.84,83.52 191.726,85.643 196.523,84.665 C200.061,83.944 203.29,82.369 206.585,80.974 C207.547,80.567 208.016,79.847 208.201,78.914 C209.74,71.161 211.259,63.404 212.785,55.649 C213.014,54.482 212.651,53.758 211.401,53.459 C209.287,52.954 207.181,52.483 205.01,52.611 Z M299.687,52.628 L299.687,52.616 C297.604,52.616 295.518,52.689 293.439,52.593 C291.705,52.513 290.894,53.179 290.587,54.925 C289.677,60.089 288.59,65.222 287.639,70.379 C286.764,75.124 285.461,79.801 285.12,84.629 C284.911,87.594 285.772,88.413 288.7,88.389 C293.068,88.354 296.989,86.762 300.784,84.773 C301.518,84.388 301.838,83.778 301.99,82.994 C303.842,73.432 305.695,63.87 307.585,54.316 C307.834,53.059 307.359,52.619 306.186,52.624 C304.019,52.635 301.853,52.628 299.687,52.628 Z M191.494,110.973 C195.822,111.079 198.664,108.677 200.844,105.298 C203.932,100.51 205.043,95.014 206.268,89.572 C206.627,87.98 205.902,87.867 204.636,88.419 C199.341,90.729 194.279,93.44 190.064,97.452 C188.196,99.23 186.618,101.285 185.98,103.911 C184.932,108.232 187.027,110.944 191.494,110.973 Z M61.828,95.09 C57.823,95.264 54.259,94.991 50.698,94.596 C47.817,94.276 47.53,93.947 48.063,91.184 C51.356,74.111 54.658,57.04 57.951,39.967 C58.911,34.989 58.904,34.988 53.92,35.544 C50.404,35.937 49.992,35.511 49.872,31.887 C49.822,30.363 50.309,29.619 51.876,29.363 C60.422,27.963 68.98,26.761 77.673,26.876 C79.852,26.905 81.997,27.175 84.11,27.618 C92.062,29.284 96.321,34.508 96.517,43.696 C96.799,56.94 93.998,69.678 88.826,81.828 C84.861,91.143 76.98,94.616 67.402,95.075 C65.409,95.172 63.407,95.09 61.828,95.09 Z M63.466,87.865 C64.299,87.865 65.132,87.885 65.964,87.862 C75.113,87.609 79.69,84.395 82.96,75.869 C84.455,71.972 85.458,67.925 86.236,63.837 C87.618,56.57 89.268,49.31 87.902,41.828 C87.191,37.937 84.957,35.512 81.119,34.771 C77.343,34.043 73.54,33.974 69.69,34.389 C67.722,34.601 67.034,35.468 66.691,37.265 C63.866,52.057 60.96,66.834 58.108,81.621 C56.901,87.878 56.934,87.884 63.466,87.865 Z M116.677,51.149 C120.261,48.49 123.652,46.282 127.799,45.663 C129.792,45.366 131.769,45.332 133.757,45.66 C135.027,45.869 135.478,46.53 135.023,47.761 C134.591,48.931 134.055,50.077 133.758,51.281 C133.292,53.172 132.182,53.826 130.303,53.601 C125.983,53.083 122.072,54.222 118.481,56.633 C116.388,58.038 115.079,59.795 114.609,62.407 C112.842,72.225 110.851,82.002 109.029,91.81 C108.65,93.85 107.866,94.773 105.608,94.703 C99.537,94.514 100.193,95.162 101.279,89.525 C103.813,76.382 106.33,63.235 108.897,50.099 C109.14,48.853 108.873,47.092 110.31,46.601 C112.106,45.988 114.096,46.257 115.993,46.49 C116.757,46.584 116.676,47.307 116.676,47.89 C116.677,48.85 116.677,49.811 116.677,51.149 Z M344.417,27.83 C349.721,27.865 349.339,27.398 348.27,32.713 C347.165,38.205 348.054,37.539 342.362,37.58 C337.767,37.613 337.767,37.585 338.649,33.129 C338.681,32.966 338.73,32.807 338.758,32.644 C339.715,26.965 339.311,27.94 344.417,27.83 Z" id="Combined-Shape" fill="#FF0001"></path>
    </g>
</svg>